<svg width="98" height="90" viewBox="0 0 98 90" fill="none" xmlns="http://www.w3.org/2000/svg">
<path d="M80.8052 58.3972C80.2225 58.599 79.6246 58.7939 79.0153 58.9829C77.6665 54.5184 75.8462 49.771 73.6187 44.8661C75.7444 40.078 77.4943 35.3913 78.8053 30.9557C79.8955 31.2855 80.9536 31.6334 81.9732 32.0006C91.835 35.5504 97.8506 40.7988 97.8506 44.8429C97.8506 49.1505 91.354 54.7425 80.8052 58.3972ZM76.4282 67.466C77.4947 73.0988 77.647 78.1916 76.9406 82.1728C76.3059 85.7501 75.0294 88.1352 73.4512 89.0905C70.0926 91.1231 62.9104 88.481 55.1646 81.5115C54.2766 80.7125 53.3822 79.8595 52.485 78.9566C55.4878 75.5226 58.489 71.5305 61.4181 67.0969C66.57 66.6189 71.4374 65.8374 75.8514 64.7705C76.0688 65.6874 76.2619 66.5867 76.4282 67.466ZM32.1649 88.7392C28.8836 89.9509 26.2702 89.9856 24.6904 89.0332C21.3288 87.0059 19.9313 79.1803 21.8376 68.6831C22.0559 67.4809 22.3158 66.246 22.6153 64.9837C26.9809 65.9931 31.8126 66.7194 36.9769 67.1572C39.9257 71.4956 43.0135 75.4834 46.1253 78.975C45.4454 79.6613 44.7682 80.3147 44.0948 80.9303C39.96 84.7094 35.8165 87.3907 32.1649 88.7392ZM16.7923 58.3709C11.5958 56.5137 7.30431 54.1001 4.36271 51.4662C1.71951 49.0994 0.38501 46.7496 0.38501 44.8429C0.38501 40.7853 6.1705 35.6099 15.8197 32.0922C16.9905 31.6654 18.2161 31.2631 19.488 30.8853C20.8216 35.421 22.5709 40.1633 24.682 44.9587C22.5436 49.8253 20.7694 54.6431 19.4228 59.2321C18.516 58.9595 17.6375 58.6727 16.7923 58.3709ZM21.9453 21.6947C19.9425 10.9923 21.2726 2.91887 24.6198 0.892968C28.1851 -1.26523 36.069 1.8119 44.3784 9.52657C44.9095 10.0197 45.4428 10.5358 45.9775 11.0697C42.8811 14.5461 39.8215 18.5039 36.8989 22.8167C31.8868 23.3025 27.0891 24.0828 22.6779 25.1277C22.4006 23.9612 22.1549 22.8152 21.9453 21.6947ZM67.9151 33.5635C66.8606 31.659 65.778 29.7995 64.6744 27.9908C68.0746 28.4402 71.3325 29.0369 74.3919 29.767C73.4734 32.8449 72.3285 36.0631 70.981 39.3622C70.0143 37.4432 68.9918 35.5083 67.9151 33.5635ZM49.1687 14.4717C51.2687 16.8505 53.3716 19.5063 55.44 22.3879C53.3557 22.285 51.2455 22.2314 49.1179 22.2314C47.0104 22.2314 44.9158 22.2838 42.8443 22.3849C44.9148 19.5301 47.036 16.8779 49.1687 14.4717ZM30.3023 33.5965C29.2489 35.5063 28.2454 37.4307 27.2939 39.3586C25.9682 36.071 24.834 32.8382 23.9075 29.7166C26.9481 29.0051 30.1906 28.4234 33.5692 27.9825C32.45 29.8078 31.3585 31.681 30.3023 33.5961V33.5965ZM33.6665 62.0428C30.1758 61.6356 26.8846 61.0838 23.8447 60.392C24.786 57.2147 25.9452 53.9128 27.2991 50.5544C28.253 52.481 29.2605 54.4061 30.3203 56.3202H30.3205C31.4001 58.2701 32.5185 60.1802 33.6665 62.0428ZM49.2947 75.5496C47.1369 73.1153 44.9846 70.4226 42.8826 67.5261C44.9232 67.6098 47.0036 67.6527 49.1179 67.6527C51.2901 67.6527 53.4374 67.6015 55.551 67.5031C53.4758 70.4517 51.3804 73.1486 49.2947 75.5496ZM71.0244 50.3833C72.4488 53.778 73.6496 57.0626 74.603 60.1857C71.513 60.9228 68.1769 61.5164 64.6618 61.9575C65.7682 60.1244 66.8602 58.233 67.9333 56.2874C69.019 54.319 70.0497 52.3477 71.0244 50.3833ZM63.9898 53.9093C62.3239 56.9295 60.6136 59.8126 58.8773 62.5341C55.7149 62.7706 52.4478 62.8923 49.1179 62.8923C45.8015 62.8923 42.5755 62.7846 39.4691 62.5738C37.6628 59.8166 35.9154 56.9249 34.2601 53.9352H34.2605C32.6096 50.9537 31.0901 47.947 29.7133 44.9571C31.0897 41.9603 32.6052 38.9502 34.2466 35.974L34.2462 35.9746C35.892 32.9905 37.6241 30.1129 39.4137 27.3729C42.5831 27.1224 45.8332 26.9917 49.1177 26.9917H49.1179C52.4173 26.9917 55.6715 27.1234 58.8399 27.3761C60.6022 30.096 62.3225 32.9643 63.9748 35.9488C65.6458 38.9669 67.1808 41.9569 68.569 44.8895C67.185 47.8724 65.6534 50.8926 63.9898 53.9093ZM73.3813 0.751349C76.9501 2.9032 78.3379 11.5816 76.0957 22.9617C75.9527 23.6879 75.7916 24.4275 75.6167 25.1771C71.1953 24.1104 66.3941 23.3166 61.3674 22.8235C58.4391 18.4632 55.4046 14.4993 52.3586 11.0675C53.1776 10.2438 53.9953 9.45834 54.8097 8.71712C62.6775 1.55782 70.031 -1.2688 73.3813 0.751349Z" fill="white"/>
</svg>
